<svg width="409.6612548828125px" height="122.021240234375px" xmlns="http://www.w3.org/2000/svg"
  viewBox="45.16937255859375 13.9893798828125 409.6612548828125 122.021240234375" style="background: rgba(0, 0, 0, 0);"
  preserveAspectRatio="xMidYMid">
  <defs>
    <linearGradient id="editing-sticker-gradient" x1="0.5" y1="0.2" x2="0.5" y2="0.8">
      <stop offset="0" stop-color="#fd9"></stop>
      <stop offset="1" stop-color="#9df"></stop>
    </linearGradient>
    <filter id="editing-sticker" x="-100%" y="-100%" width="300%" height="300%">
      <feMorphology operator="erode" radius="1" in="SourceAlpha" result="alpha-erode"></feMorphology>
      <feConvolveMatrix order="3,3" divisor="1" kernelMatrix="0 1 0 1 1 1 0 1 0" in="alpha-erode" result="alpha-round">
      </feConvolveMatrix>
      <feMorphology operator="dilate" radius="3.5" in="alpha-round" result="dilate-shadow"></feMorphology>
      <!-- <feGaussianBlur in="dilate-shadow" stdDeviation="1.5" result="shadow"></feGaussianBlur> -->
      <feFlood flood-color="#fff" result="flood-sticker"></feFlood>
      <feComposite operator="in" in="flood-sticker" in2="alpha-round" result="comp-sticker"></feComposite>
      <feMorphology operator="dilate" radius="3" in="comp-sticker" result="morph-sticker"></feMorphology>
      <feConvolveMatrix order="3,3" divisor="1" kernelMatrix="0 1 0 1 1 1 0 1 0" in="morph-sticker" result="sticker">
      </feConvolveMatrix>
      <feMerge>
        <feMergeNode in="shadow"></feMergeNode>
        <feMergeNode in="sticker"></feMergeNode>
        <feMergeNode in="SourceGraphic"></feMergeNode>
      </feMerge>
    </filter>
  </defs>
  <g filter="url(#editing-sticker)">
    <g transform="translate(112.56094598770142, 104.75218772888184)">
      <path
        d="M-7.81 7.62L-7.81 7.62L-7.81 7.62Q-4.48 7.36-2.05 3.20L-2.05 3.20L-2.05 3.20Q-0.19 0 1.02-5.89L1.02-5.89L6.21-32.64L19.07-33.92L13.63-5.89L13.63-5.89Q11.52 4.80 8.26 8.32L8.26 8.32L8.26 8.32Q6.53 10.24 4.29 10.88L4.29 10.88L4.29 10.88Q2.05 11.52-0.51 11.52L-0.51 11.52L-0.51 11.52Q-5.89 11.52-7.81 7.62ZM7.23-41.54L7.23-41.54L7.23-41.54Q7.23-44.03 9.31-45.38L9.31-45.38L9.31-45.38Q11.39-46.72 14.40-46.72L14.40-46.72L14.40-46.72Q17.41-46.72 19.23-45.38L19.23-45.38L19.23-45.38Q21.06-44.03 21.06-41.54L21.06-41.54L21.06-41.54Q21.06-39.04 19.04-37.76L19.04-37.76L19.04-37.76Q17.02-36.48 14.02-36.48L14.02-36.48L14.02-36.48Q11.01-36.48 9.12-37.76L9.12-37.76L9.12-37.76Q7.23-39.04 7.23-41.54ZM47.30-10.82L47.30-10.82L47.30-10.82Q48.90-9.73 48.90-7.33L48.90-7.33L48.90-7.33Q48.90-4.93 47.68-3.39L47.68-3.39L47.68-3.39Q46.46-1.86 44.48-0.83L44.48-0.83L44.48-0.83Q40.38 1.28 35.97 1.28L35.97 1.28L35.97 1.28Q31.55 1.28 28.96 0.32L28.96 0.32L28.96 0.32Q26.37-0.64 24.64-2.43L24.64-2.43L24.64-2.43Q21.25-5.82 21.25-12.03L21.25-12.03L21.25-12.03Q21.25-21.70 26.50-27.58L26.50-27.58L26.50-27.58Q32.13-33.92 41.92-33.92L41.92-33.92L41.92-33.92Q48-33.92 51.01-31.36L51.01-31.36L51.01-31.36Q53.25-29.44 53.25-26.30L53.25-26.30L53.25-26.30Q53.25-15.04 33.79-15.04L33.79-15.04L33.79-15.04Q33.54-13.38 33.54-11.97L33.54-11.97L33.54-11.97Q33.54-9.02 34.85-7.90L34.85-7.90L34.85-7.90Q36.16-6.78 38.59-6.78L38.59-6.78L38.59-6.78Q41.02-6.78 43.62-7.90L43.62-7.90L43.62-7.90Q46.21-9.02 47.30-10.82ZM34.24-17.79L34.24-17.79L34.24-17.79Q38.78-17.79 41.41-20.61L41.41-20.61L41.41-20.61Q44.03-23.30 44.03-27.58L44.03-27.58L44.03-27.58Q44.03-29.06 43.49-29.86L43.49-29.86L43.49-29.86Q42.94-30.66 41.86-30.66L41.86-30.66L41.86-30.66Q40.77-30.66 39.84-30.24L39.84-30.24L39.84-30.24Q38.91-29.82 37.95-28.42L37.95-28.42L37.95-28.42Q35.58-25.22 34.24-17.79ZM85.25-4.38L85.25-4.38L85.25-4.38Q82.56-1.66 78.88-0.19L78.88-0.19L78.88-0.19Q75.20 1.28 71.55 1.28L71.55 1.28L71.55 1.28Q67.90 1.28 66.62 0.64L66.62 0.64L64.64 11.52L51.65 12.80L60.48-32.64L70.91-33.73L70.08-29.31L70.08-29.31Q72.77-33.86 78.34-33.86L78.34-33.86L78.34-33.86Q84.61-33.86 87.94-29.82L87.94-29.82L87.94-29.82Q90.88-26.18 90.88-20.61L90.88-20.61L90.88-20.61Q90.88-15.04 89.41-11.07L89.41-11.07L89.41-11.07Q87.94-7.10 85.25-4.38ZM70.78-22.34L67.39-3.58L67.39-3.58Q68.74-2.43 70.40-2.43L70.40-2.43L70.40-2.43Q72.06-2.43 73.02-3.07L73.02-3.07L73.02-3.07Q73.98-3.71 74.69-4.99L74.69-4.99L74.69-4.99Q76.61-8.45 78.14-18.94L78.14-18.94L78.14-18.94Q78.59-22.02 78.59-25.02L78.59-25.02L78.59-25.02Q78.59-28.03 77.92-28.99L77.92-28.99L77.92-28.99Q77.25-29.95 75.97-29.95L75.97-29.95L75.97-29.95Q72.06-29.95 70.78-22.34L70.78-22.34ZM126.91-7.10L126.91-7.10L126.91-7.10Q126.91-4.29 129.79-3.46L129.79-3.46L129.79-3.46Q129.09-1.09 126.34 0.19L126.34 0.19L126.34 0.19Q124.03 1.28 121.50 1.28L121.50 1.28L121.50 1.28Q118.98 1.28 117.66 0.61L117.66 0.61L117.66 0.61Q116.35-0.06 115.65-1.15L115.65-1.15L115.65-1.15Q114.50-2.82 114.50-5.95L114.50-5.95L114.50-5.95Q114.50-7.81 115.52-12.93L115.52-12.93L116.42-17.79L116.42-17.79Q117.50-23.36 117.50-25.41L117.50-25.41L117.50-25.41Q117.50-28.99 115.52-28.99L115.52-28.99L115.52-28.99Q113.02-28.99 111.42-25.34L111.42-25.34L111.42-25.34Q110.78-23.94 110.34-21.82L110.34-21.82L105.98 0L93.12 1.28L102.14-44.80L115.01-46.08L114.50-43.52L114.50-43.52Q112.70-33.66 111.17-30.34L111.17-30.34L111.17-30.34Q114.75-33.92 121.34-33.92L121.34-33.92L121.34-33.92Q128.32-33.92 129.60-29.31L129.60-29.31L129.60-29.31Q130.05-27.84 130.05-26.56L130.05-26.56L130.05-26.56Q130.05-25.28 129.95-24.29L129.95-24.29L129.95-24.29Q129.86-23.30 129.54-21.50L129.54-21.50L128.70-16.90L127.23-9.66L127.23-9.66Q126.91-8.19 126.91-7.10ZM136-6.40L136-6.40L136-6.40Q136-8.13 136.90-12.48L136.90-12.48L140.29-29.76L136.51-29.76L136.77-31.68L136.77-31.68Q144.45-33.98 151.87-39.62L151.87-39.62L154.94-39.62L153.41-32.64L158.40-32.64L157.82-29.76L152.90-29.76L149.63-12.48L149.63-12.48Q148.80-8.51 148.80-7.17L148.80-7.17L148.80-7.17Q148.80-4.10 151.49-3.46L151.49-3.46L151.49-3.46Q150.85-1.28 148.54 0L148.54 0L148.54 0Q146.24 1.28 142.98 1.28L142.98 1.28L142.98 1.28Q139.71 1.28 137.86-0.77L137.86-0.77L137.86-0.77Q136-2.82 136-6.40ZM190.27-7.10L190.27-7.10L190.27-7.10Q190.27-4.29 193.15-3.46L193.15-3.46L193.15-3.46Q192.45-1.09 189.70 0.19L189.70 0.19L189.70 0.19Q187.39 1.28 184.86 1.28L184.86 1.28L184.86 1.28Q182.34 1.28 181.02 0.61L181.02 0.61L181.02 0.61Q179.71-0.06 179.01-1.15L179.01-1.15L179.01-1.15Q177.86-2.82 177.86-5.95L177.86-5.95L177.86-5.95Q177.86-7.81 178.88-12.93L178.88-12.93L179.78-17.79L179.78-17.79Q180.86-23.36 180.86-25.41L180.86-25.41L180.86-25.41Q180.86-28.99 178.88-28.99L178.88-28.99L178.88-28.99Q176.38-28.99 174.78-25.34L174.78-25.34L174.78-25.34Q174.14-23.94 173.70-21.82L173.70-21.82L169.34 0L156.48 1.28L165.50-44.80L178.37-46.08L177.86-43.52L177.86-43.52Q176.06-33.66 174.53-30.34L174.53-30.34L174.53-30.34Q178.11-33.92 184.70-33.92L184.70-33.92L184.70-33.92Q191.68-33.92 192.96-29.31L192.96-29.31L192.96-29.31Q193.41-27.84 193.41-26.56L193.41-26.56L193.41-26.56Q193.41-25.28 193.31-24.29L193.31-24.29L193.31-24.29Q193.22-23.30 192.90-21.50L192.90-21.50L192.06-16.90L190.59-9.66L190.59-9.66Q190.27-8.19 190.27-7.10ZM201.12-1.92L201.12-1.92L201.12-1.92Q199.62-3.58 198.94-6.21L198.94-6.21L198.94-6.21Q198.27-8.83 198.27-13.12L198.27-13.12L198.27-13.12Q198.27-17.41 199.74-21.31L199.74-21.31L199.74-21.31Q201.22-25.22 203.90-28.03L203.90-28.03L203.90-28.03Q209.41-33.92 218.50-33.92L218.50-33.92L218.50-33.92Q221.76-33.92 224.13-32.83L224.13-32.83L235.07-33.92L230.34-8.96L230.34-8.96Q230.14-8.19 230.14-6.78L230.14-6.78L230.14-6.78Q230.14-5.38 231.01-4.48L231.01-4.48L231.01-4.48Q231.87-3.58 233.15-3.46L233.15-3.46L233.15-3.46Q232.51-1.28 230.18 0L230.18 0L230.18 0Q227.84 1.28 225.22 1.28L225.22 1.28L225.22 1.28Q222.59 1.28 220.83 0.29L220.83 0.29L220.83 0.29Q219.07-0.70 218.56-2.37L218.56-2.37L218.56-2.37Q217.54-0.77 215.36 0.26L215.36 0.26L215.36 0.26Q213.18 1.28 210.27 1.28L210.27 1.28L210.27 1.28Q207.36 1.28 204.99 0.51L204.99 0.51L204.99 0.51Q202.62-0.26 201.12-1.92ZM214.62-27.90L214.62-27.90L214.62-27.90Q213.89-26.75 213.25-24.80L213.25-24.80L213.25-24.80Q212.61-22.85 211.55-17.63L211.55-17.63L211.55-17.63Q210.50-12.42 210.50-8.70L210.50-8.70L210.50-8.70Q210.50-4.99 211.07-3.90L211.07-3.90L211.07-3.90Q211.65-2.82 212.67-2.82L212.67-2.82L212.67-2.82Q214.72-2.82 216.22-4.77L216.22-4.77L216.22-4.77Q217.73-6.72 218.30-10.18L218.30-10.18L221.70-28.93L221.70-28.93Q220.35-30.08 218.78-30.08L218.78-30.08L218.78-30.08Q217.22-30.08 216.29-29.57L216.29-29.57L216.29-29.57Q215.36-29.06 214.62-27.90ZM270.72-7.10L270.72-7.10L270.72-7.10Q270.72-4.29 273.60-3.46L273.60-3.46L273.60-3.46Q272.90-1.09 270.14 0.19L270.14 0.19L270.14 0.19Q267.84 1.28 265.31 1.28L265.31 1.28L265.31 1.28Q262.78 1.28 261.47 0.61L261.47 0.61L261.47 0.61Q260.16-0.06 259.46-1.15L259.46-1.15L259.46-1.15Q258.30-2.82 258.30-5.95L258.30-5.95L258.30-5.95Q258.30-7.81 259.33-12.93L259.33-12.93L260.22-17.79L260.22-17.79Q261.31-23.36 261.31-25.41L261.31-25.41L261.31-25.41Q261.31-28.99 259.33-28.99L259.33-28.99L259.33-28.99Q256.83-28.99 255.23-25.34L255.23-25.34L255.23-25.34Q254.59-23.94 254.14-21.82L254.14-21.82L249.79 0L236.93 1.28L245.95-44.80L258.82-46.08L258.30-43.52L258.30-43.52Q256.51-33.66 254.98-30.34L254.98-30.34L254.98-30.34Q258.56-33.92 265.15-33.92L265.15-33.92L265.15-33.92Q272.13-33.92 273.41-29.31L273.41-29.31L273.41-29.31Q273.86-27.84 273.86-26.56L273.86-26.56L273.86-26.56Q273.86-25.28 273.76-24.29L273.76-24.29L273.76-24.29Q273.66-23.30 273.34-21.50L273.34-21.50L272.51-16.90L271.04-9.66L271.04-9.66Q270.72-8.19 270.72-7.10Z"
        fill="url(#editing-sticker-gradient)" stroke="#000" stroke-width="1.5"></path>
    </g>
  </g>
  <style>
    text {
      font-size: 16px;
      font-family: Arial Black;
      dominant-baseline: central;
      text-anchor: middle;
    }
  </style>
</svg>